# xmcd
#
# Track frame offsets: 
#        150
#        18306
#        38371
#        51183
#
# Disc length: 962 seconds
#
# Revision: 0
# Processed by: cddbd v1.5.2PL0 Copyright (c) Steve Scherf et al.
# Submitted via: ExactAudioCopyFreeDBPlugin 1.0
#
DISCID=2303c004
DTITLE=加藤ひろあき - テリマカシ
DYEAR=2010
DGENRE=Reggae
TTITLE0=南風
TTITLE1=Musik
TTITLE2=Samurai
TTITLE3=Terima Kasih
EXTD=
EXTT0=
EXTT1=
EXTT2=
EXTT3=
PLAYORDER=
